M48
; DRILL file {KiCad 5.1.5-52549c5~84~ubuntu18.04.1} date Sun 01 Mar 2020 02:46:43 PM EST
; FORMAT={-:-/ absolute / inch / decimal}
; #@! TF.CreationDate,2020-03-01T14:46:43-05:00
; #@! TF.GenerationSoftware,Kicad,Pcbnew,5.1.5-52549c5~84~ubuntu18.04.1
FMAT,2
INCH
T1C0.0315
T2C0.0323
T3C0.0394
T4C0.0402
T5C0.0433
T6C0.0461
T7C0.0709
T8C0.0811
T9C0.0862
T10C0.1000
T11C0.1378
%
G90
G05
T1
X10.2328Y-4.4852
X13.0542Y-4.4852
X13.0542Y-4.8852
X11.6442Y-4.4852
X11.6442Y-4.8852
X10.2328Y-4.8852
X8.8214Y-4.4852
X8.8214Y-4.8852
T2
X11.1687Y-4.6537
X11.3065Y-4.6537
X12.5787Y-4.6537
X12.7165Y-4.6537
X9.7572Y-4.6537
X9.895Y-4.6537
X8.3458Y-4.6537
X8.4836Y-4.6537
T3
X2.1522Y-3.8279
X2.1522Y-4.1279
X2.2522Y-3.8279
X2.2522Y-4.1279
X2.3522Y-3.8279
X2.3522Y-4.1279
X2.4522Y-3.8279
X2.4522Y-4.1279
X2.5522Y-3.8279
X2.5522Y-4.1279
X2.6522Y-3.8279
X2.6522Y-4.1279
X2.7522Y-3.8279
X2.7522Y-4.1279
X2.8522Y-3.8279
X2.8522Y-4.1279
X6.0122Y-3.8279
X6.0122Y-4.1279
X6.1122Y-3.8279
X6.1122Y-4.1279
X6.2122Y-3.8279
X6.2122Y-4.1279
X6.3122Y-3.8279
X6.3122Y-4.1279
X6.4122Y-3.8279
X6.4122Y-4.1279
X6.5122Y-3.8279
X6.5122Y-4.1279
X6.6122Y-3.8279
X6.6122Y-4.1279
X6.7122Y-3.8279
X6.7122Y-4.1279
T4
X3.7524Y-3.2691
X3.8524Y-3.2691
X3.9524Y-3.2691
X4.0524Y-3.2691
X4.1524Y-3.2691
X4.2524Y-3.2691
X4.3524Y-3.2691
X4.4524Y-3.2691
X4.5524Y-3.2691
X4.6524Y-3.2691
X4.7524Y-3.2691
X4.8524Y-3.2691
X4.9524Y-3.2691
X5.0524Y-3.2691
X5.1524Y-3.2691
X3.7524Y-2.6691
X3.8524Y-2.6691
X3.9524Y-2.6691
X4.0524Y-2.6691
X4.1524Y-2.6691
X4.2524Y-2.6691
X4.3524Y-2.6691
X4.4524Y-2.6691
X4.5524Y-2.6691
X4.6524Y-2.6691
X4.7524Y-2.6691
X4.8524Y-2.6691
X4.9524Y-2.6691
X5.0524Y-2.6691
X5.1524Y-2.6691
T5
X12.2568Y-3.8318
X12.2568Y-4.2318
X9.4337Y-3.8318
X9.4337Y-4.2318
X8.0171Y-3.8318
X8.0171Y-4.2318
X14.4287Y-6.34
X14.5665Y-3.9188
X14.783Y-3.9188
X14.783Y-6.34
X10.8458Y-3.8318
X10.8458Y-4.2318
T6
X9.8261Y-3.825
X10.2261Y-3.825
X11.2376Y-3.825
X11.6376Y-3.825
X8.4147Y-3.825
X8.8147Y-3.825
X12.6476Y-3.825
X13.0476Y-3.825
T7
X14.4622Y-2.1267
X14.4622Y-2.4023
X14.4622Y-2.6779
T8
X11.0876Y-3.325
X8.2647Y-3.325
X12.4976Y-3.325
X9.6761Y-3.325
T9
X8.9647Y-3.225
X13.1976Y-3.225
X10.3761Y-3.225
X11.7876Y-3.225
T10
X12.66Y-1.8504
X12.91Y-2.0154
X13.16Y-1.8504
X9.86Y-1.8504
X10.11Y-2.0154
X10.36Y-1.8504
X8.46Y-1.8504
X8.71Y-2.0154
X8.96Y-1.8504
X11.26Y-1.8504
X11.51Y-2.0154
X11.76Y-1.8504
T11
X14.7496Y-1.6248
X14.7496Y-3.1799
T3
G00X6.5492Y-6.188
M15
G01X6.4508Y-6.188
M16
G05
G00X6.5492Y-6.4242
M15
G01X6.4508Y-6.4242
M16
G05
G00X6.685Y-6.3553
M15
G01X6.685Y-6.2569
M16
G05
G00X7.2992Y-6.188
M15
G01X7.2008Y-6.188
M16
G05
G00X7.2992Y-6.4242
M15
G01X7.2008Y-6.4242
M16
G05
G00X7.435Y-6.3553
M15
G01X7.435Y-6.2569
M16
G05
G00X8.7992Y-6.188
M15
G01X8.7008Y-6.188
M16
G05
G00X8.7992Y-6.4242
M15
G01X8.7008Y-6.4242
M16
G05
G00X8.935Y-6.3553
M15
G01X8.935Y-6.2569
M16
G05
G00X2.7992Y-6.188
M15
G01X2.7008Y-6.188
M16
G05
G00X2.7992Y-6.4242
M15
G01X2.7008Y-6.4242
M16
G05
G00X2.935Y-6.3553
M15
G01X2.935Y-6.2569
M16
G05
G00X8.0492Y-6.188
M15
G01X7.9508Y-6.188
M16
G05
G00X8.0492Y-6.4242
M15
G01X7.9508Y-6.4242
M16
G05
G00X8.185Y-6.3553
M15
G01X8.185Y-6.2569
M16
G05
G00X5.7992Y-6.188
M15
G01X5.7008Y-6.188
M16
G05
G00X5.7992Y-6.4242
M15
G01X5.7008Y-6.4242
M16
G05
G00X5.935Y-6.3553
M15
G01X5.935Y-6.2569
M16
G05
G00X2.0492Y-6.188
M15
G01X1.9508Y-6.188
M16
G05
G00X2.0492Y-6.4242
M15
G01X1.9508Y-6.4242
M16
G05
G00X2.185Y-6.3553
M15
G01X2.185Y-6.2569
M16
G05
G00X5.0492Y-6.188
M15
G01X4.9508Y-6.188
M16
G05
G00X5.0492Y-6.4242
M15
G01X4.9508Y-6.4242
M16
G05
G00X5.185Y-6.3553
M15
G01X5.185Y-6.2569
M16
G05
G00X3.5492Y-6.188
M15
G01X3.4508Y-6.188
M16
G05
G00X3.5492Y-6.4242
M15
G01X3.4508Y-6.4242
M16
G05
G00X3.685Y-6.3553
M15
G01X3.685Y-6.2569
M16
G05
G00X4.2992Y-6.188
M15
G01X4.2008Y-6.188
M16
G05
G00X4.2992Y-6.4242
M15
G01X4.2008Y-6.4242
M16
G05
G00X4.435Y-6.3553
M15
G01X4.435Y-6.2569
M16
G05
T0
M30
