  0
SECTION
  2
HEADER
  9
$ANGBASE
  50
0.0
  9
$ANGDIR
  70
1
  9
$MEASUREMENT
  70
0
  0
ENDSEC
  0
SECTION
  2
TABLES
  0
TABLE
  2
LTYPE
  70
4
  0
LTYPE
  5
40F
  2
CONTINUOUS
  70
0
  3
Solid line
  72
65
  73
0
  40
0.0
  0
LTYPE
  5
410
  2
DASHDOT
 70
0
  3
Dash Dot ____ _ ____ _
 72
65
 73
4
 40
2.0
 49
1.25
 49
-0.25
 49
0.25
 49
-0.25
  0
LTYPE
  5
411
  2
DASHED
 70
0
  3
Dashed __ __ __ __ __
 72
65
 73
2
 40
0.75
 49
0.5
 49
-0.25
  0
LTYPE
  5
43B
  2
DOTTED
 70
0
  3
Dotted .  .  .  .
 72
65
 73
2
 40
0.2
 49
0.0
 49
-0.2
  0
ENDTAB
  0
TABLE
  2
STYLE
  70
4
  0
STYLE
  2
KICAD
  70
0
  40
0
  41
1
  42
1
  50
0
  71
0
  3
isocp.shx
  0
STYLE
  2
KICADB
  70
0
  40
0
  41
1
  42
1
  50
0
  71
0
  3
isocp.shx
  0
STYLE
  2
KICADI
  70
0
  40
0
  41
1
  42
1
  50
15
  71
0
  3
isocp.shx
  0
STYLE
  2
KICADBI
  70
0
  40
0
  41
1
  42
1
  50
15
  71
0
  3
isocp.shx
  0
ENDTAB
  0
TABLE
  2
LAYER
  70
1
  0
LAYER
  2
BLACK
  70
0
  62
7
  6
CONTINUOUS
  0
ENDTAB
  0
ENDSEC
  0
SECTION
  2
ENTITIES
0
LINE
8
BLACK
6
CONTINUOUS
10
1.68249
20
-1.26811
11
15.0922
21
-1.26811
0
LINE
8
BLACK
6
CONTINUOUS
10
15.0922
20
-1.26811
11
15.0922
21
-1.26811
0
LINE
8
BLACK
6
CONTINUOUS
10
15.0922
20
-1.26811
11
15.0922
21
-1.26811
0
LINE
8
BLACK
6
CONTINUOUS
10
15.0922
20
-1.26811
11
15.0922
21
-1.26811
0
LINE
8
BLACK
6
CONTINUOUS
10
15.0922
20
-1.26811
11
15.0924
21
-1.26812
0
LINE
8
BLACK
6
CONTINUOUS
10
15.0924
20
-1.26812
11
15.0924
21
-1.26812
0
LINE
8
BLACK
6
CONTINUOUS
10
15.0924
20
-1.26812
11
15.0924
21
-1.26812
0
LINE
8
BLACK
6
CONTINUOUS
10
15.0924
20
-1.26812
11
15.0924
21
-1.26812
0
LINE
8
BLACK
6
CONTINUOUS
10
15.0924
20
-1.26812
11
15.0926
21
-1.26817
0
LINE
8
BLACK
6
CONTINUOUS
10
15.0926
20
-1.26817
11
15.0926
21
-1.26818
0
LINE
8
BLACK
6
CONTINUOUS
10
15.0926
20
-1.26818
11
15.0926
21
-1.26818
0
LINE
8
BLACK
6
CONTINUOUS
10
15.0926
20
-1.26818
11
15.0926
21
-1.26818
0
LINE
8
BLACK
6
CONTINUOUS
10
15.0926
20
-1.26818
11
15.0927
21
-1.26825
0
LINE
8
BLACK
6
CONTINUOUS
10
15.0927
20
-1.26825
11
15.0927
21
-1.26827
0
LINE
8
BLACK
6
CONTINUOUS
10
15.0927
20
-1.26827
11
15.0927
21
-1.26827
0
LINE
8
BLACK
6
CONTINUOUS
10
15.0927
20
-1.26827
11
15.0927
21
-1.26827
0
LINE
8
BLACK
6
CONTINUOUS
10
15.0927
20
-1.26827
11
15.0929
21
-1.2684
0
LINE
8
BLACK
6
CONTINUOUS
10
15.0929
20
-1.2684
11
15.093
21
-1.26855
0
LINE
8
BLACK
6
CONTINUOUS
10
15.093
20
-1.26855
11
15.0931
21
-1.26872
0
LINE
8
BLACK
6
CONTINUOUS
10
15.0931
20
-1.26872
11
15.0932
21
-1.2689
0
LINE
8
BLACK
6
CONTINUOUS
10
15.0932
20
-1.2689
11
15.0932
21
-1.26909
0
LINE
8
BLACK
6
CONTINUOUS
10
15.0932
20
-1.26909
11
15.0932
21
-1.26914
0
LINE
8
BLACK
6
CONTINUOUS
10
15.0932
20
-1.26914
11
15.0952
21
-6.65951
0
LINE
8
BLACK
6
CONTINUOUS
10
15.0952
20
-6.65951
11
15.0952
21
-6.65955
0
LINE
8
BLACK
6
CONTINUOUS
10
15.0952
20
-6.65955
11
15.0952
21
-6.6596
0
LINE
8
BLACK
6
CONTINUOUS
10
15.0952
20
-6.6596
11
15.0952
21
-6.6596
0
LINE
8
BLACK
6
CONTINUOUS
10
15.0952
20
-6.6596
11
15.0951
21
-6.65975
0
LINE
8
BLACK
6
CONTINUOUS
10
15.0951
20
-6.65975
11
15.0951
21
-6.65975
0
LINE
8
BLACK
6
CONTINUOUS
10
15.0951
20
-6.65975
11
15.0951
21
-6.65975
0
LINE
8
BLACK
6
CONTINUOUS
10
15.0951
20
-6.65975
11
15.0951
21
-6.65979
0
LINE
8
BLACK
6
CONTINUOUS
10
15.0951
20
-6.65979
11
15.0951
21
-6.65993
0
LINE
8
BLACK
6
CONTINUOUS
10
15.0951
20
-6.65993
11
15.0951
21
-6.65993
0
LINE
8
BLACK
6
CONTINUOUS
10
15.0951
20
-6.65993
11
15.0951
21
-6.65993
0
LINE
8
BLACK
6
CONTINUOUS
10
15.0951
20
-6.65993
11
15.0951
21
-6.65999
0
LINE
8
BLACK
6
CONTINUOUS
10
15.0951
20
-6.65999
11
15.095
21
-6.6601
0
LINE
8
BLACK
6
CONTINUOUS
10
15.095
20
-6.6601
11
15.095
21
-6.6601
0
LINE
8
BLACK
6
CONTINUOUS
10
15.095
20
-6.6601
11
15.095
21
-6.6601
0
LINE
8
BLACK
6
CONTINUOUS
10
15.095
20
-6.6601
11
15.095
21
-6.6601
0
LINE
8
BLACK
6
CONTINUOUS
10
15.095
20
-6.6601
11
15.0949
21
-6.66025
0
LINE
8
BLACK
6
CONTINUOUS
10
15.0949
20
-6.66025
11
15.0949
21
-6.66025
0
LINE
8
BLACK
6
CONTINUOUS
10
15.0949
20
-6.66025
11
15.0949
21
-6.66025
0
LINE
8
BLACK
6
CONTINUOUS
10
15.0949
20
-6.66025
11
15.0948
21
-6.66034
0
LINE
8
BLACK
6
CONTINUOUS
10
15.0948
20
-6.66034
11
15.0947
21
-6.66038
0
LINE
8
BLACK
6
CONTINUOUS
10
15.0947
20
-6.66038
11
15.0947
21
-6.66038
0
LINE
8
BLACK
6
CONTINUOUS
10
15.0947
20
-6.66038
11
15.0947
21
-6.66038
0
LINE
8
BLACK
6
CONTINUOUS
10
15.0947
20
-6.66038
11
15.0946
21
-6.66044
0
LINE
8
BLACK
6
CONTINUOUS
10
15.0946
20
-6.66044
11
15.0945
21
-6.66047
0
LINE
8
BLACK
6
CONTINUOUS
10
15.0945
20
-6.66047
11
15.0945
21
-6.66047
0
LINE
8
BLACK
6
CONTINUOUS
10
15.0945
20
-6.66047
11
15.0945
21
-6.66047
0
LINE
8
BLACK
6
CONTINUOUS
10
15.0945
20
-6.66047
11
15.0944
21
-6.6605
0
LINE
8
BLACK
6
CONTINUOUS
10
15.0944
20
-6.6605
11
15.0944
21
-6.66052
0
LINE
8
BLACK
6
CONTINUOUS
10
15.0944
20
-6.66052
11
15.0944
21
-6.66052
0
LINE
8
BLACK
6
CONTINUOUS
10
15.0944
20
-6.66052
11
15.0944
21
-6.66052
0
LINE
8
BLACK
6
CONTINUOUS
10
15.0944
20
-6.66052
11
15.0942
21
-6.66054
0
LINE
8
BLACK
6
CONTINUOUS
10
15.0942
20
-6.66054
11
15.0942
21
-6.66054
0
LINE
8
BLACK
6
CONTINUOUS
10
15.0942
20
-6.66054
11
15.0942
21
-6.66054
0
LINE
8
BLACK
6
CONTINUOUS
10
15.0942
20
-6.66054
11
15.0941
21
-6.66054
0
LINE
8
BLACK
6
CONTINUOUS
10
15.0941
20
-6.66054
11
1.68249
21
-6.66008
0
LINE
8
BLACK
6
CONTINUOUS
10
1.68249
20
-6.66008
11
1.68244
21
-6.66008
0
LINE
8
BLACK
6
CONTINUOUS
10
1.68244
20
-6.66008
11
1.68225
21
-6.66006
0
LINE
8
BLACK
6
CONTINUOUS
10
1.68225
20
-6.66006
11
1.68206
21
-6.66001
0
LINE
8
BLACK
6
CONTINUOUS
10
1.68206
20
-6.66001
11
1.68189
21
-6.65992
0
LINE
8
BLACK
6
CONTINUOUS
10
1.68189
20
-6.65992
11
1.68174
21
-6.65979
0
LINE
8
BLACK
6
CONTINUOUS
10
1.68174
20
-6.65979
11
1.68162
21
-6.65964
0
LINE
8
BLACK
6
CONTINUOUS
10
1.68162
20
-6.65964
11
1.68153
21
-6.65947
0
LINE
8
BLACK
6
CONTINUOUS
10
1.68153
20
-6.65947
11
1.68147
21
-6.65929
0
LINE
8
BLACK
6
CONTINUOUS
10
1.68147
20
-6.65929
11
1.68146
21
-6.65914
0
LINE
8
BLACK
6
CONTINUOUS
10
1.68146
20
-6.65914
11
1.68146
21
-6.65914
0
LINE
8
BLACK
6
CONTINUOUS
10
1.68146
20
-6.65914
11
1.68145
21
-6.65909
0
LINE
8
BLACK
6
CONTINUOUS
10
1.68145
20
-6.65909
11
1.68146
21
-6.65905
0
LINE
8
BLACK
6
CONTINUOUS
10
1.68146
20
-6.65905
11
1.68146
21
-1.26914
0
LINE
8
BLACK
6
CONTINUOUS
10
1.68146
20
-1.26914
11
1.68145
21
-1.26909
0
LINE
8
BLACK
6
CONTINUOUS
10
1.68145
20
-1.26909
11
1.68147
21
-1.2689
0
LINE
8
BLACK
6
CONTINUOUS
10
1.68147
20
-1.2689
11
1.68153
21
-1.26872
0
LINE
8
BLACK
6
CONTINUOUS
10
1.68153
20
-1.26872
11
1.68162
21
-1.26855
0
LINE
8
BLACK
6
CONTINUOUS
10
1.68162
20
-1.26855
11
1.68174
21
-1.2684
0
LINE
8
BLACK
6
CONTINUOUS
10
1.68174
20
-1.2684
11
1.68189
21
-1.26827
0
LINE
8
BLACK
6
CONTINUOUS
10
1.68189
20
-1.26827
11
1.68206
21
-1.26818
0
LINE
8
BLACK
6
CONTINUOUS
10
1.68206
20
-1.26818
11
1.68225
21
-1.26812
0
LINE
8
BLACK
6
CONTINUOUS
10
1.68225
20
-1.26812
11
1.68239
21
-1.26811
0
LINE
8
BLACK
6
CONTINUOUS
10
1.68239
20
-1.26811
11
1.68239
21
-1.26811
0
LINE
8
BLACK
6
CONTINUOUS
10
1.68239
20
-1.26811
11
1.68244
21
-1.26811
0
LINE
8
BLACK
6
CONTINUOUS
10
1.68244
20
-1.26811
11
1.68249
21
-1.26811
0
LINE
8
BLACK
6
CONTINUOUS
10
1.68343
20
-1.27008
11
1.68343
21
-6.65811
0
LINE
8
BLACK
6
CONTINUOUS
10
1.68343
20
-6.65811
11
15.0932
21
-6.65857
0
LINE
8
BLACK
6
CONTINUOUS
10
15.0932
20
-6.65857
11
15.0912
21
-1.27008
0
LINE
8
BLACK
6
CONTINUOUS
10
15.0912
20
-1.27008
11
1.68343
21
-1.27008
  0
ENDSEC
  0
EOF
